<svg width="41" height="41" viewBox="0 0 41 41" fill="none" xmlns="http://www.w3.org/2000/svg">
<path fill-rule="evenodd" clip-rule="evenodd" d="M26.0397 8.09333C26.0397 11.8875 29.12 14.9633 32.9198 14.9633C33.3382 14.9613 33.7555 14.9211 34.1666 14.8433V28.4633C34.1666 34.1933 30.7867 37.5833 25.0483 37.5833H12.55C6.79657 37.5833 3.41663 34.1933 3.41663 28.4633V15.9833C3.41663 10.2533 6.79657 6.83333 12.55 6.83333H26.1599C26.0791 7.24846 26.0389 7.67044 26.0397 8.09333ZM22.4645 25.4483L27.3466 19.1483V19.1183C27.7646 18.5567 27.658 17.7648 27.1063 17.3333C26.8393 17.1272 26.5 17.038 26.1659 17.086C25.8319 17.1341 25.5316 17.3153 25.3337 17.5883L21.2177 22.8833L16.5308 19.1933C16.2632 18.9849 15.9228 18.8928 15.5865 18.938C15.2501 18.9831 14.9461 19.1617 14.7432 19.4333L9.69582 25.9433C9.5184 26.1645 9.42289 26.44 9.42542 26.7233C9.39613 27.296 9.75774 27.8162 10.3053 27.989C10.8528 28.1618 11.4481 27.9437 11.7538 27.4583L15.975 21.9983L20.6619 25.6733C20.9284 25.8882 21.2711 25.9857 21.6111 25.9432C21.951 25.9008 22.2591 25.7222 22.4645 25.4483Z" fill="#18B3AB"/>
<circle opacity="0.4" cx="33.3125" cy="7.6875" r="4.27083" fill="#18B3AB"/>
</svg>
