<svg width="43" height="43" viewBox="0 0 43 43" fill="none" xmlns="http://www.w3.org/2000/svg">
<path d="M37.625 16.5855V30.3345C37.625 35.9585 34.085 39.4165 28.4209 39.4165H14.5615C8.95052 39.4165 5.375 35.8868 5.375 30.2251V16.5855H37.625ZM28.7393 29.3677C27.9252 29.3857 27.2705 30.0642 27.2881 30.8882C27.2881 31.7123 27.9428 32.3936 28.7568 32.4116C29.5888 32.4116 30.2617 31.7303 30.2617 30.8882C30.2616 30.048 29.5887 29.3677 28.7568 29.3677H28.7393ZM14.1719 29.3472C13.3578 29.3849 12.7208 30.0642 12.7207 30.8882C12.7561 31.7124 13.4289 32.3594 14.2432 32.3218C15.0395 32.2876 15.6769 31.6067 15.6416 30.7827C15.6239 29.9765 14.9684 29.3472 14.1719 29.3472ZM21.4648 29.3472C20.6507 29.3848 20.0128 30.0641 20.0127 30.8882C20.0481 31.7123 20.7211 32.3593 21.5352 32.3218C22.3316 32.2878 22.9689 31.6069 22.9336 30.7827C22.9159 29.9766 22.2612 29.3473 21.4648 29.3472ZM14.1895 22.8433C13.3754 22.881 12.7384 23.5622 12.7383 24.3862C12.7737 25.2086 13.4465 25.8555 14.2607 25.8179C15.0572 25.7838 15.6946 25.1028 15.6592 24.2769C15.6414 23.4725 14.9859 22.8433 14.1895 22.8433ZM21.4648 22.8433C20.6507 22.8809 20.0128 23.5621 20.0127 24.3862C20.0481 25.2085 20.7211 25.8554 21.5352 25.8179C22.3317 25.7838 22.969 25.1028 22.9336 24.2769C22.9158 23.4726 22.2612 22.8434 21.4648 22.8433ZM28.7568 22.8638C27.9428 22.8819 27.3057 23.5446 27.3057 24.3687V24.3862C27.3234 25.2086 27.9963 25.8358 28.8105 25.8179C29.6069 25.8016 30.2443 25.1205 30.2266 24.2964C30.191 23.5065 29.5532 22.8638 28.7568 22.8638Z" fill="#18B3AB"/>
<path opacity="0.4" d="M5.38098 16.5853C5.40399 15.5336 5.49249 13.4463 5.65888 12.7744C6.50849 8.99577 9.39365 6.59494 13.5178 6.25273H29.4835C33.5723 6.61286 36.4928 9.02982 37.3425 12.7744C37.5071 13.4284 37.5956 15.5318 37.6186 16.5853H5.38098Z" fill="#18B3AB"/>
<path d="M14.8795 11.8071C15.6583 11.8071 16.2425 11.2176 16.2425 10.4275V4.9647C16.2425 4.17458 15.6583 3.58333 14.8795 3.58333C14.1007 3.58333 13.5166 4.17458 13.5166 4.9647V10.4275C13.5166 11.2176 14.1007 11.8071 14.8795 11.8071Z" fill="#18B3AB"/>
<path d="M28.1201 11.8071C28.8812 11.8071 29.4831 11.2176 29.4831 10.4275V4.9647C29.4831 4.17458 28.8812 3.58333 28.1201 3.58333C27.3413 3.58333 26.7572 4.17458 26.7572 4.9647V10.4275C26.7572 11.2176 27.3413 11.8071 28.1201 11.8071Z" fill="#18B3AB"/>
</svg>
