<svg width="36" height="36" viewBox="0 0 36 36" fill="none" xmlns="http://www.w3.org/2000/svg">
<path opacity="0.4" d="M24.1133 3H29.1922C31.2956 3 33 4.71878 33 6.83994V11.9618C33 14.083 31.2956 15.8017 29.1922 15.8017H24.1133C22.0099 15.8017 20.3055 14.083 20.3055 11.9618V6.83994C20.3055 4.71878 22.0099 3 24.1133 3Z" fill="#18B3AB"/>
<path d="M11.8867 20.1982C13.9901 20.1982 15.6943 21.917 15.6943 24.0381V29.1602C15.6943 31.2798 13.9901 33 11.8867 33H6.80762C4.70432 32.9999 3.00005 31.2798 3 29.1602V24.0381C3.00007 21.917 4.70433 20.1983 6.80762 20.1982H11.8867ZM29.1924 20.1982C31.2957 20.1983 32.9999 21.917 33 24.0381V29.1602C32.9999 31.2798 31.2957 32.9999 29.1924 33H24.1133C22.0099 33 20.3057 31.2798 20.3057 29.1602V24.0381C20.3057 21.917 22.0099 20.1982 24.1133 20.1982H29.1924ZM11.8867 3C13.9901 3 15.6943 4.71872 15.6943 6.83984V11.9619C15.6943 14.083 13.9901 15.8018 11.8867 15.8018H6.80762C4.70433 15.8017 3.00007 14.083 3 11.9619V6.83984C3.00005 4.71878 4.70433 3.00009 6.80762 3H11.8867Z" fill="#18B3AB"/>
</svg>
