<svg width="41" height="41" viewBox="0 0 41 41" fill="none" xmlns="http://www.w3.org/2000/svg">
<path opacity="0.4" d="M27.6596 3.41667H13.3421C8.14875 3.41667 5.125 6.4575 5.125 11.6679V29.315C5.125 34.6108 8.14875 37.5833 13.3421 37.5833H27.6596C32.9367 37.5833 35.875 34.6108 35.875 29.315V11.6679C35.875 6.4575 32.9367 3.41667 27.6596 3.41667Z" fill="#18B3AB"/>
<path d="M13.8035 26.8887H27.197C27.8784 26.9572 28.3921 27.5382 28.3923 28.2383C28.3923 28.9199 27.8785 29.5029 27.197 29.5714H13.8035C13.291 29.6397 12.7956 29.3832 12.5222 28.9561C12.249 28.512 12.249 27.9486 12.5222 27.5215C12.7956 27.0774 13.291 26.8375 13.8035 26.8887ZM27.197 19.0977C27.9315 19.0979 28.5291 19.6972 28.5291 20.4317C28.529 21.1662 27.9315 21.7636 27.197 21.7637H13.8035C13.0672 21.7637 12.4705 21.1663 12.4705 20.4317C12.4705 19.6971 13.0672 19.0977 13.8035 19.0977H27.197ZM18.9099 11.3604C19.6461 11.3606 20.2439 11.9587 20.2439 12.6915C20.2438 13.4446 19.646 14.0419 18.9099 14.0421H13.8035C13.0672 14.0421 12.4705 13.4446 12.4705 12.71C12.4705 11.9754 13.0672 11.377 13.8035 11.377V11.3604H18.9099Z" fill="#18B3AB"/>
</svg>
