<svg width="41" height="41" viewBox="0 0 41 41" fill="none" xmlns="http://www.w3.org/2000/svg">
<path opacity="0.4" d="M20.1173 37.3056C16.2171 34.8966 12.5915 32.0561 9.30683 28.836C6.98797 26.5368 5.21704 23.7295 4.12935 20.6286C2.18589 14.581 4.4482 7.66953 10.7644 5.61768C14.0983 4.5707 17.7241 5.21341 20.5121 7.34555C23.3011 5.2158 26.9257 4.57329 30.2597 5.61768C36.5759 7.66953 38.8534 14.581 36.91 20.6286C35.8311 23.7266 34.0707 26.5337 31.7628 28.836C28.4752 32.0526 24.85 34.8928 20.9524 37.3056L20.5272 37.5833L20.1173 37.3056Z" fill="#18B3AB"/>
<path d="M20.5187 37.5833L20.1173 37.3056C16.2123 34.8968 12.5817 32.0563 9.29168 28.836C6.96182 26.54 5.18034 23.7325 4.08382 20.6286C2.15555 14.581 4.41786 7.66952 10.7341 5.61767C14.0679 4.57069 17.7415 5.2139 20.5187 7.36389V37.5833Z" fill="#18B3AB"/>
<path d="M31.1436 17.082C30.8005 17.0599 30.4809 16.8884 30.2598 16.6077C30.0387 16.3269 29.9354 15.9616 29.9743 15.5974C30.0114 14.3975 29.3287 13.3054 28.2758 12.8804C27.6082 12.6982 27.2039 11.9752 27.371 11.2622C27.5294 10.5606 28.1864 10.1244 28.8466 10.2823C28.93 10.2961 29.0102 10.3263 29.0833 10.3714C31.1943 11.1837 32.561 13.3701 32.4523 15.7607C32.4488 16.123 32.3075 16.4683 32.0608 16.7174C31.8141 16.9665 31.4831 17.0981 31.1436 17.082Z" fill="#18B3AB"/>
</svg>
