<svg width="48" height="48" viewBox="0 0 48 48" fill="none" xmlns="http://www.w3.org/2000/svg">
<path d="M23.898 29.0799C16.9981 29.0799 11.1761 30.2074 11.1761 34.5588C11.1761 38.9121 17.0357 40 23.898 40C30.798 40 36.6199 38.8725 36.6199 34.521C36.6199 30.1677 30.7604 29.0799 23.898 29.0799Z" fill="#18B3AB"/>
<path opacity="0.4" d="M23.8981 24.9341C28.5703 24.9341 32.3166 21.1661 32.3166 16.467C32.3166 11.7661 28.5703 8 23.8981 8C19.2259 8 15.4795 11.7661 15.4795 16.467C15.4795 21.1661 19.2259 24.9341 23.8981 24.9341Z" fill="#18B3AB"/>
<path opacity="0.4" d="M42.1759 18.4385C43.3847 13.6836 39.8407 9.41315 35.3278 9.41315C34.8372 9.41315 34.368 9.46718 33.9095 9.55904C33.8486 9.57345 33.7806 9.60406 33.7448 9.6581C33.7036 9.72654 33.734 9.8184 33.7788 9.87783C35.1344 11.7906 35.9134 14.1195 35.9134 16.6194C35.9134 19.0149 35.1989 21.2483 33.9453 23.1016C33.8164 23.2925 33.931 23.5501 34.1585 23.5897C34.4736 23.6455 34.796 23.6744 35.1255 23.6834C38.4116 23.7698 41.3611 21.6427 42.1759 18.4385Z" fill="#18B3AB"/>
<path d="M45.6186 29.6339C45.0169 28.3443 43.5645 27.4599 41.3565 27.0259C40.3142 26.7701 37.4937 26.4099 34.8702 26.4585C34.8308 26.4639 34.8093 26.4909 34.8057 26.509C34.8003 26.5342 34.8111 26.5774 34.863 26.6044C36.0754 27.2078 40.7619 29.832 40.1727 35.3668C40.1477 35.6064 40.3393 35.8135 40.5775 35.7775C41.7307 35.6118 44.6981 34.9706 45.6186 32.9731C46.1272 31.9177 46.1272 30.6911 45.6186 29.6339Z" fill="#18B3AB"/>
<path opacity="0.4" d="M14.0897 9.55959C13.633 9.46593 13.162 9.4137 12.6713 9.4137C8.15852 9.4137 4.61451 13.6841 5.8251 18.4391C6.63812 21.6432 9.58758 23.7704 12.8737 23.6839C13.2032 23.6749 13.5274 23.6443 13.8407 23.5903C14.0682 23.5506 14.1828 23.2931 14.0538 23.1021C12.8003 21.247 12.0858 19.0154 12.0858 16.6199C12.0858 14.1182 12.8665 11.7894 14.2222 9.87838C14.2652 9.81895 14.2974 9.72709 14.2544 9.65865C14.2186 9.60281 14.1523 9.574 14.0897 9.55959Z" fill="#18B3AB"/>
<path d="M6.64311 27.0253C4.43505 27.4594 2.9845 28.3437 2.38278 29.6333C1.87241 30.6906 1.87241 31.9171 2.38278 32.9744C3.30326 34.97 6.27062 35.613 7.4239 35.7769C7.66208 35.813 7.8519 35.6076 7.82683 35.3663C7.23766 29.8333 11.9242 27.209 13.1384 26.6057C13.1885 26.5768 13.1992 26.5354 13.1939 26.5084C13.1903 26.4904 13.1706 26.4634 13.1312 26.4598C10.5059 26.4093 7.68715 26.7696 6.64311 27.0253Z" fill="#18B3AB"/>
</svg>
